<?xml version="1.0" standalone="no"?>
<!DOCTYPE svg PUBLIC "-//W3C//DTD SVG 20010904//EN"
 "http://www.w3.org/TR/2001/REC-SVG-20010904/DTD/svg10.dtd">
<svg version="1.0" xmlns="http://www.w3.org/2000/svg"
 width="256.000000pt" height="256.000000pt" viewBox="0 0 256.000000 256.000000"
 preserveAspectRatio="xMidYMid meet">
<metadata>
Created by potrace 1.14, written by Peter Selinger 2001-2017
</metadata>
<g transform="translate(0.000000,256.000000) scale(0.100000,-0.100000)"
fill="#000000" stroke="none">
<path d="M266 2331 c-55 -33 -54 -21 -52 -741 1 -551 3 -669 15 -686 31 -46
44 -48 281 -51 124 -1 232 -2 240 -2 10 -1 20 -19 27 -52 61 -257 294 -486
569 -560 104 -28 287 -30 389 -4 300 76 526 309 596 615 19 87 18 242 -3 332
-67 291 -272 512 -553 597 l-70 21 1 228 c1 174 -2 234 -12 257 -29 63 6 60
-730 61 -595 1 -675 -1 -698 -15z m1221 -205 c4 -3 6 -102 5 -219 0 -116 3
-226 9 -242 11 -37 54 -64 111 -71 171 -19 325 -114 424 -259 25 -37 88 -175
79 -175 -2 0 1 -15 6 -32 13 -45 12 -186 -2 -245 -50 -212 -227 -390 -435
-439 -347 -80 -668 146 -718 508 -8 52 -24 82 -54 100 -23 14 -64 16 -249 15
-123 0 -226 2 -229 6 -12 12 -9 1048 3 1055 14 9 1041 7 1050 -2z"/>
</g>
</svg>
